<?xml version="1.0" standalone="no"?>
<!DOCTYPE svg PUBLIC "-//W3C//DTD SVG 20010904//EN"
 "http://www.w3.org/TR/2001/REC-SVG-20010904/DTD/svg10.dtd">
<svg version="1.0" xmlns="http://www.w3.org/2000/svg"
 width="968.000000pt" height="968.000000pt" viewBox="0 0 968.000000 968.000000"
 preserveAspectRatio="xMidYMid meet">
<metadata>
Created by potrace 1.11, written by Peter Selinger 2001-2013
</metadata>
<g transform="translate(0.000000,968.000000) scale(0.100000,-0.100000)"
fill="#000000" stroke="none">
<path d="M3957 8224 c-1 -2 -131 -6 -287 -9 -449 -10 -542 -13 -975 -30 -172
-7 -362 -16 -420 -20 -27 -3 -97 -7 -155 -10 -188 -10 -333 -22 -510 -40 -14
-1 -54 -6 -90 -9 -72 -8 -194 -24 -225 -30 -11 -2 -42 -7 -70 -11 -27 -5 -52
-9 -55 -10 -14 -4 -90 -17 -95 -16 -15 2 -163 -57 -240 -96 -133 -67 -267
-168 -354 -267 -14 -16 -33 -37 -42 -46 -9 -9 -31 -39 -49 -66 -19 -27 -38
-52 -44 -56 -6 -4 -7 -8 -2 -8 5 0 2 -8 -7 -17 -15 -18 -87 -156 -92 -177 -1
-6 -7 -24 -14 -41 -16 -38 -67 -238 -75 -290 -4 -23 -9 -52 -12 -65 -6 -30
-13 -73 -19 -120 -2 -19 -7 -46 -10 -60 -3 -14 -7 -47 -10 -75 -2 -27 -7 -60
-9 -73 -3 -13 -8 -51 -11 -85 -4 -34 -8 -79 -10 -99 -2 -21 -7 -70 -10 -110
-3 -40 -8 -91 -10 -113 -3 -22 -8 -83 -11 -135 -3 -52 -7 -122 -9 -155 -10
-180 -16 -284 -22 -410 -8 -195 -9 -1057 0 -1245 4 -85 10 -209 13 -275 3 -66
7 -142 9 -170 2 -27 7 -93 10 -145 3 -52 7 -117 10 -145 8 -89 16 -169 21
-215 2 -25 7 -67 9 -95 3 -27 7 -66 10 -85 3 -19 7 -59 11 -89 3 -30 8 -64 11
-75 2 -12 6 -32 8 -46 1 -14 6 -45 10 -70 4 -25 9 -54 11 -65 1 -11 3 -20 4
-20 1 0 3 -9 5 -20 2 -11 6 -33 8 -50 30 -179 123 -410 215 -534 15 -20 29
-38 33 -41 3 -3 12 -15 21 -28 50 -74 253 -252 286 -252 7 0 12 -4 12 -8 0
-19 258 -133 335 -148 23 -4 55 -12 88 -19 39 -10 71 -15 242 -39 61 -8 117
-15 125 -15 14 0 46 -4 135 -16 22 -3 67 -8 100 -10 33 -2 89 -7 125 -10 132
-11 267 -20 445 -30 44 -2 118 -7 165 -9 47 -3 157 -8 245 -11 88 -4 214 -8
280 -11 66 -3 179 -6 250 -8 72 -2 263 -8 425 -12 577 -16 2167 -9 2765 12 55
1 174 6 265 9 300 10 632 25 688 30 23 2 48 7 54 11 7 5 8 3 3 -6 -5 -8 -4
-11 1 -7 6 3 52 8 104 12 160 9 358 26 490 39 30 3 78 8 105 11 84 9 149 17
170 22 11 2 34 5 50 7 72 9 120 17 200 36 28 6 58 13 67 15 9 2 26 9 37 15 12
6 21 8 21 5 0 -3 17 3 39 14 21 11 41 17 45 14 3 -4 6 -1 6 5 0 7 9 12 20 12
11 0 20 5 20 10 0 6 9 10 20 10 11 0 20 4 20 8 0 4 16 14 35 21 19 7 35 16 35
20 0 5 14 14 30 21 17 7 30 16 30 21 0 5 6 9 14 9 8 0 16 3 18 8 2 4 34 34 72
66 57 50 115 113 179 196 26 33 67 100 67 109 0 5 7 14 15 21 8 7 12 16 9 21
-3 5 0 9 5 9 6 0 11 6 11 13 0 6 7 25 15 40 21 42 66 167 59 167 -4 0 -2 6 3
13 6 6 13 28 17 47 3 19 10 55 16 80 17 80 20 94 26 134 3 22 7 43 9 46 3 4 8
43 21 145 2 17 6 46 8 65 10 65 16 115 21 165 2 28 7 70 10 95 3 25 8 68 10
95 10 134 16 206 20 269 3 38 8 104 11 145 3 42 7 112 9 156 2 44 7 163 11
265 10 226 10 1124 1 1310 -4 74 -10 182 -12 240 -13 266 -46 666 -69 835 -2
17 -7 53 -11 80 -3 28 -8 59 -10 71 -3 12 -7 39 -10 60 -3 21 -8 50 -11 64 -3
13 -7 40 -10 60 -2 19 -7 43 -10 52 -3 10 -7 30 -10 45 -31 172 -100 349 -191
489 -54 83 -66 97 -168 199 -85 85 -171 150 -275 207 -97 53 -304 122 -399
133 -20 2 -45 6 -56 8 -11 3 -42 8 -70 12 -27 4 -59 9 -70 10 -26 4 -107 14
-170 20 -27 3 -66 8 -85 10 -19 3 -66 7 -105 10 -104 8 -195 16 -245 20 -46 4
-191 13 -314 20 -220 12 -286 15 -426 21 -272 10 -361 14 -560 19 -107 3 -271
8 -365 11 -185 6 -2052 14 -2058 8z m-612 -2284 c239 -159 438 -290 442 -290
5 0 15 -9 23 -20 8 -11 18 -20 22 -20 11 0 402 -262 406 -272 2 -4 8 -8 13 -8
7 0 446 -290 554 -366 11 -7 55 -37 98 -65 43 -28 76 -56 74 -62 -2 -6 -12
-15 -23 -21 -10 -6 -21 -13 -24 -16 -3 -3 -39 -27 -80 -55 -41 -27 -78 -54
-82 -60 -4 -5 -8 -6 -8 -1 0 5 -10 0 -22 -11 -13 -11 -77 -55 -143 -98 -66
-44 -121 -83 -123 -87 -2 -4 -10 -8 -18 -8 -8 0 -14 -4 -14 -10 0 -5 -4 -10
-9 -10 -9 0 -350 -226 -378 -250 -7 -5 -14 -10 -17 -10 -8 0 -101 -64 -104
-72 -2 -5 -9 -8 -16 -8 -7 0 -21 -9 -31 -20 -10 -11 -22 -20 -26 -20 -7 0 -96
-57 -109 -70 -3 -3 -84 -57 -180 -120 -96 -63 -177 -117 -180 -120 -6 -6 -267
-180 -292 -195 -10 -5 -56 -36 -102 -67 -46 -32 -86 -58 -88 -58 -3 0 -5 625
-5 1390 0 765 2 1390 4 1390 2 0 199 -130 438 -290z m2048 28 c215 -145 398
-264 405 -266 6 -2 12 -7 12 -10 0 -4 16 -16 35 -26 19 -11 35 -23 35 -28 0
-4 5 -8 10 -8 6 0 54 -29 106 -65 52 -36 99 -65 104 -65 5 0 10 -4 12 -8 4
-11 97 -72 109 -72 5 0 9 -4 9 -10 0 -5 16 -16 35 -25 19 -9 39 -23 46 -31 6
-8 17 -14 24 -14 8 0 15 -4 17 -8 2 -5 30 -26 63 -47 33 -22 62 -43 63 -47 2
-5 8 -8 13 -8 12 0 132 -82 137 -92 2 -5 8 -8 12 -8 8 0 145 -89 220 -143 14
-10 69 -47 123 -82 l99 -64 -69 -46 c-37 -25 -99 -66 -138 -91 -38 -26 -73
-52 -77 -58 -4 -6 -8 -7 -8 -3 0 4 -24 -10 -52 -31 -29 -21 -64 -45 -78 -52
-14 -7 -32 -19 -40 -26 -26 -24 -511 -344 -521 -344 -5 0 -9 -4 -9 -8 0 -4
-22 -21 -50 -37 -27 -16 -50 -33 -50 -37 0 -4 -4 -8 -9 -8 -11 0 -135 -82
-139 -92 -2 -5 -8 -8 -13 -8 -5 0 -41 -22 -81 -50 -40 -27 -80 -54 -88 -60
-112 -74 -167 -111 -176 -118 -5 -5 -21 -15 -34 -22 -13 -7 -29 -17 -34 -22
-6 -4 -51 -35 -101 -68 -49 -32 -95 -63 -100 -67 -19 -15 -215 -143 -219 -143
-2 0 -4 625 -5 1390 0 765 2 1390 5 1390 2 0 181 -118 397 -262z"/>
</g>
</svg>
